<svg width="16" height="16" viewBox="0 0 16 16" fill="none" xmlns="http://www.w3.org/2000/svg">
<path fill-rule="evenodd" clip-rule="evenodd" d="M6.776 1.55298C6.89455 1.49358 7.03184 1.4837 7.15768 1.52552C7.28351 1.56734 7.38758 1.65743 7.447 1.77598L10.447 7.77598C10.4818 7.84551 10.5 7.92221 10.5 7.99998C10.5 8.07775 10.4818 8.15445 10.447 8.22398L7.447 14.224C7.41789 14.2832 7.37735 14.3361 7.32771 14.3796C7.27808 14.423 7.22032 14.4563 7.15779 14.4773C7.09525 14.4984 7.02916 14.5068 6.96334 14.5022C6.89751 14.4976 6.83325 14.48 6.77425 14.4505C6.71526 14.4209 6.6627 14.3799 6.61961 14.33C6.57651 14.28 6.54374 14.222 6.52317 14.1593C6.5026 14.0966 6.49465 14.0304 6.49977 13.9647C6.50489 13.8989 6.52298 13.8347 6.553 13.776L9.44 7.99998L6.553 2.22398C6.49359 2.10543 6.48371 1.96813 6.52553 1.8423C6.56735 1.71646 6.65745 1.61239 6.776 1.55298V1.55298Z" fill="#878787"/>
</svg>
